<mxfile host="app.diagrams.net" modified="2024-05-23T04:37:04.256Z" agent="Mozilla/5.0 (Windows NT 10.0; Win64; x64) AppleWebKit/537.36 (KHTML, like Gecko) Chrome/125.0.0.0 Safari/537.36" etag="N3AiPmF7B2dsjWcImbMI" version="24.4.6" type="github">
  <diagram id="C5RBs43oDa-KdzZeNtuy" name="Page-1">
    <mxGraphModel dx="1728" dy="915" grid="1" gridSize="10" guides="1" tooltips="1" connect="1" arrows="1" fold="1" page="1" pageScale="1" pageWidth="827" pageHeight="1169" math="0" shadow="0">
      <root>
        <mxCell id="WIyWlLk6GJQsqaUBKTNV-0" />
        <mxCell id="WIyWlLk6GJQsqaUBKTNV-1" parent="WIyWlLk6GJQsqaUBKTNV-0" />
        <mxCell id="oy04oqgG4kP10lPZJapk-1" value="encrypt and decrypt then extract" style="swimlane;childLayout=stackLayout;resizeParent=1;resizeParentMax=0;startSize=20;horizontal=0;horizontalStack=1;" vertex="1" parent="WIyWlLk6GJQsqaUBKTNV-1">
          <mxGeometry x="130" y="20" width="1800" height="1120" as="geometry" />
        </mxCell>
        <mxCell id="oy04oqgG4kP10lPZJapk-5" value="user_login_or_register.py" style="swimlane;startSize=20;" vertex="1" parent="oy04oqgG4kP10lPZJapk-1">
          <mxGeometry x="20" width="690" height="1120" as="geometry" />
        </mxCell>
        <mxCell id="oy04oqgG4kP10lPZJapk-24" style="edgeStyle=orthogonalEdgeStyle;rounded=0;orthogonalLoop=1;jettySize=auto;html=1;" edge="1" parent="oy04oqgG4kP10lPZJapk-5" source="oy04oqgG4kP10lPZJapk-17" target="oy04oqgG4kP10lPZJapk-22">
          <mxGeometry relative="1" as="geometry" />
        </mxCell>
        <mxCell id="oy04oqgG4kP10lPZJapk-25" style="edgeStyle=orthogonalEdgeStyle;rounded=0;orthogonalLoop=1;jettySize=auto;html=1;entryX=1;entryY=0.5;entryDx=0;entryDy=0;" edge="1" parent="oy04oqgG4kP10lPZJapk-5" source="oy04oqgG4kP10lPZJapk-17" target="oy04oqgG4kP10lPZJapk-23">
          <mxGeometry relative="1" as="geometry" />
        </mxCell>
        <mxCell id="oy04oqgG4kP10lPZJapk-17" value="Login or register" style="html=1;whiteSpace=wrap;aspect=fixed;shape=isoRectangle;" vertex="1" parent="oy04oqgG4kP10lPZJapk-5">
          <mxGeometry x="255" y="160" width="160" height="96" as="geometry" />
        </mxCell>
        <mxCell id="oy04oqgG4kP10lPZJapk-56" style="edgeStyle=orthogonalEdgeStyle;rounded=0;orthogonalLoop=1;jettySize=auto;html=1;exitX=0.5;exitY=1;exitDx=0;exitDy=0;entryX=0.5;entryY=0;entryDx=0;entryDy=0;" edge="1" parent="oy04oqgG4kP10lPZJapk-5" source="oy04oqgG4kP10lPZJapk-22" target="oy04oqgG4kP10lPZJapk-27">
          <mxGeometry relative="1" as="geometry" />
        </mxCell>
        <mxCell id="oy04oqgG4kP10lPZJapk-22" value="Register" style="shape=ext;double=1;rounded=0;whiteSpace=wrap;html=1;" vertex="1" parent="oy04oqgG4kP10lPZJapk-5">
          <mxGeometry x="440" y="179" width="120" height="58" as="geometry" />
        </mxCell>
        <mxCell id="oy04oqgG4kP10lPZJapk-65" style="edgeStyle=orthogonalEdgeStyle;rounded=0;orthogonalLoop=1;jettySize=auto;html=1;exitX=0.5;exitY=1;exitDx=0;exitDy=0;" edge="1" parent="oy04oqgG4kP10lPZJapk-5" source="oy04oqgG4kP10lPZJapk-23" target="oy04oqgG4kP10lPZJapk-62">
          <mxGeometry relative="1" as="geometry" />
        </mxCell>
        <mxCell id="oy04oqgG4kP10lPZJapk-23" value="Login" style="shape=ext;double=1;rounded=0;whiteSpace=wrap;html=1;" vertex="1" parent="oy04oqgG4kP10lPZJapk-5">
          <mxGeometry x="110" y="179" width="120" height="58" as="geometry" />
        </mxCell>
        <mxCell id="oy04oqgG4kP10lPZJapk-57" style="edgeStyle=orthogonalEdgeStyle;rounded=0;orthogonalLoop=1;jettySize=auto;html=1;exitX=0.5;exitY=1;exitDx=0;exitDy=0;entryX=0.5;entryY=0;entryDx=0;entryDy=0;" edge="1" parent="oy04oqgG4kP10lPZJapk-5" source="oy04oqgG4kP10lPZJapk-27" target="oy04oqgG4kP10lPZJapk-29">
          <mxGeometry relative="1" as="geometry" />
        </mxCell>
        <mxCell id="oy04oqgG4kP10lPZJapk-27" value="UserRegister" style="shape=ext;double=1;rounded=0;whiteSpace=wrap;html=1;" vertex="1" parent="oy04oqgG4kP10lPZJapk-5">
          <mxGeometry x="440" y="300" width="120" height="58" as="geometry" />
        </mxCell>
        <mxCell id="oy04oqgG4kP10lPZJapk-59" style="edgeStyle=orthogonalEdgeStyle;rounded=0;orthogonalLoop=1;jettySize=auto;html=1;exitX=0.5;exitY=1;exitDx=0;exitDy=0;entryX=0.5;entryY=0;entryDx=0;entryDy=0;" edge="1" parent="oy04oqgG4kP10lPZJapk-5" source="oy04oqgG4kP10lPZJapk-28" target="oy04oqgG4kP10lPZJapk-41">
          <mxGeometry relative="1" as="geometry" />
        </mxCell>
        <mxCell id="oy04oqgG4kP10lPZJapk-28" value="site login register" style="shape=ext;double=1;rounded=0;whiteSpace=wrap;html=1;" vertex="1" parent="oy04oqgG4kP10lPZJapk-5">
          <mxGeometry x="440" y="440" width="120" height="58" as="geometry" />
        </mxCell>
        <mxCell id="oy04oqgG4kP10lPZJapk-58" style="edgeStyle=orthogonalEdgeStyle;rounded=0;orthogonalLoop=1;jettySize=auto;html=1;exitX=0.5;exitY=1;exitDx=0;exitDy=0;entryX=0.5;entryY=0;entryDx=0;entryDy=0;" edge="1" parent="oy04oqgG4kP10lPZJapk-5" source="oy04oqgG4kP10lPZJapk-29" target="oy04oqgG4kP10lPZJapk-28">
          <mxGeometry relative="1" as="geometry" />
        </mxCell>
        <mxCell id="oy04oqgG4kP10lPZJapk-29" value="user saved" style="shape=ext;double=1;rounded=0;whiteSpace=wrap;html=1;" vertex="1" parent="oy04oqgG4kP10lPZJapk-5">
          <mxGeometry x="440" y="370" width="120" height="58" as="geometry" />
        </mxCell>
        <mxCell id="oy04oqgG4kP10lPZJapk-41" value="site login saved" style="shape=ext;double=1;rounded=0;whiteSpace=wrap;html=1;" vertex="1" parent="oy04oqgG4kP10lPZJapk-5">
          <mxGeometry x="440" y="510" width="120" height="58" as="geometry" />
        </mxCell>
        <mxCell id="oy04oqgG4kP10lPZJapk-55" value="HomeScreen" style="shape=ext;double=1;rounded=0;whiteSpace=wrap;html=1;" vertex="1" parent="oy04oqgG4kP10lPZJapk-5">
          <mxGeometry x="275" y="60" width="120" height="58" as="geometry" />
        </mxCell>
        <mxCell id="oy04oqgG4kP10lPZJapk-61" style="edgeStyle=orthogonalEdgeStyle;rounded=0;orthogonalLoop=1;jettySize=auto;html=1;entryX=0.499;entryY=0;entryDx=0;entryDy=0;entryPerimeter=0;" edge="1" parent="oy04oqgG4kP10lPZJapk-5" source="oy04oqgG4kP10lPZJapk-55" target="oy04oqgG4kP10lPZJapk-17">
          <mxGeometry relative="1" as="geometry" />
        </mxCell>
        <mxCell id="oy04oqgG4kP10lPZJapk-62" value="Registered?" style="html=1;whiteSpace=wrap;aspect=fixed;shape=isoRectangle;" vertex="1" parent="oy04oqgG4kP10lPZJapk-5">
          <mxGeometry x="105" y="270" width="130" height="78" as="geometry" />
        </mxCell>
        <mxCell id="oy04oqgG4kP10lPZJapk-63" style="edgeStyle=orthogonalEdgeStyle;rounded=0;orthogonalLoop=1;jettySize=auto;html=1;entryX=1.007;entryY=0.417;entryDx=0;entryDy=0;entryPerimeter=0;" edge="1" parent="oy04oqgG4kP10lPZJapk-5" source="oy04oqgG4kP10lPZJapk-41" target="oy04oqgG4kP10lPZJapk-55">
          <mxGeometry relative="1" as="geometry">
            <Array as="points">
              <mxPoint x="620" y="539" />
              <mxPoint x="620" y="84" />
            </Array>
          </mxGeometry>
        </mxCell>
        <mxCell id="oy04oqgG4kP10lPZJapk-64" style="edgeStyle=orthogonalEdgeStyle;rounded=0;orthogonalLoop=1;jettySize=auto;html=1;entryX=0;entryY=0.417;entryDx=0;entryDy=0;entryPerimeter=0;" edge="1" parent="oy04oqgG4kP10lPZJapk-5" source="oy04oqgG4kP10lPZJapk-62" target="oy04oqgG4kP10lPZJapk-55">
          <mxGeometry relative="1" as="geometry">
            <Array as="points">
              <mxPoint x="70" y="309" />
              <mxPoint x="70" y="84" />
            </Array>
          </mxGeometry>
        </mxCell>
        <mxCell id="oy04oqgG4kP10lPZJapk-77" value="No" style="edgeLabel;html=1;align=center;verticalAlign=middle;resizable=0;points=[];" vertex="1" connectable="0" parent="oy04oqgG4kP10lPZJapk-64">
          <mxGeometry x="-0.5776" y="1" relative="1" as="geometry">
            <mxPoint as="offset" />
          </mxGeometry>
        </mxCell>
        <mxCell id="oy04oqgG4kP10lPZJapk-69" value="Validate Login" style="shape=ext;double=1;rounded=0;whiteSpace=wrap;html=1;" vertex="1" parent="oy04oqgG4kP10lPZJapk-5">
          <mxGeometry x="115" y="400" width="120" height="58" as="geometry" />
        </mxCell>
        <mxCell id="oy04oqgG4kP10lPZJapk-70" style="edgeStyle=orthogonalEdgeStyle;rounded=0;orthogonalLoop=1;jettySize=auto;html=1;entryX=0.452;entryY=-0.005;entryDx=0;entryDy=0;entryPerimeter=0;" edge="1" parent="oy04oqgG4kP10lPZJapk-5" source="oy04oqgG4kP10lPZJapk-62" target="oy04oqgG4kP10lPZJapk-69">
          <mxGeometry relative="1" as="geometry" />
        </mxCell>
        <mxCell id="oy04oqgG4kP10lPZJapk-81" style="edgeStyle=orthogonalEdgeStyle;rounded=0;orthogonalLoop=1;jettySize=auto;html=1;entryX=0;entryY=0.5;entryDx=0;entryDy=0;" edge="1" parent="oy04oqgG4kP10lPZJapk-5" source="oy04oqgG4kP10lPZJapk-71" target="oy04oqgG4kP10lPZJapk-23">
          <mxGeometry relative="1" as="geometry">
            <Array as="points">
              <mxPoint x="30" y="537" />
              <mxPoint x="30" y="208" />
            </Array>
          </mxGeometry>
        </mxCell>
        <mxCell id="oy04oqgG4kP10lPZJapk-83" value="No" style="edgeLabel;html=1;align=center;verticalAlign=middle;resizable=0;points=[];" vertex="1" connectable="0" parent="oy04oqgG4kP10lPZJapk-81">
          <mxGeometry x="-0.8366" y="1" relative="1" as="geometry">
            <mxPoint as="offset" />
          </mxGeometry>
        </mxCell>
        <mxCell id="oy04oqgG4kP10lPZJapk-71" value="Correct?" style="html=1;whiteSpace=wrap;aspect=fixed;shape=isoRectangle;" vertex="1" parent="oy04oqgG4kP10lPZJapk-5">
          <mxGeometry x="110" y="498" width="130" height="78" as="geometry" />
        </mxCell>
        <mxCell id="oy04oqgG4kP10lPZJapk-80" style="edgeStyle=orthogonalEdgeStyle;rounded=0;orthogonalLoop=1;jettySize=auto;html=1;entryX=0.497;entryY=0;entryDx=0;entryDy=0;entryPerimeter=0;" edge="1" parent="oy04oqgG4kP10lPZJapk-5" source="oy04oqgG4kP10lPZJapk-69" target="oy04oqgG4kP10lPZJapk-71">
          <mxGeometry relative="1" as="geometry" />
        </mxCell>
        <mxCell id="oy04oqgG4kP10lPZJapk-2" value="user_csv" style="swimlane;startSize=20;" vertex="1" parent="oy04oqgG4kP10lPZJapk-1">
          <mxGeometry x="710" width="240" height="1120" as="geometry" />
        </mxCell>
        <mxCell id="oy04oqgG4kP10lPZJapk-3" value="login_for_sites.csv" style="swimlane;startSize=20;" vertex="1" parent="oy04oqgG4kP10lPZJapk-1">
          <mxGeometry x="950" width="280" height="1120" as="geometry" />
        </mxCell>
        <mxCell id="oy04oqgG4kP10lPZJapk-4" value="quickie_canvas.py" style="swimlane;startSize=20;" vertex="1" parent="oy04oqgG4kP10lPZJapk-1">
          <mxGeometry x="1230" width="570" height="1120" as="geometry" />
        </mxCell>
        <mxCell id="oy04oqgG4kP10lPZJapk-54" value="&amp;nbsp;" style="shape=ext;double=1;rounded=0;whiteSpace=wrap;html=1;" vertex="1" parent="oy04oqgG4kP10lPZJapk-4">
          <mxGeometry x="240" y="700" width="120" height="58" as="geometry" />
        </mxCell>
        <mxCell id="oy04oqgG4kP10lPZJapk-84" style="edgeStyle=orthogonalEdgeStyle;rounded=0;orthogonalLoop=1;jettySize=auto;html=1;entryX=0;entryY=0.5;entryDx=0;entryDy=0;" edge="1" parent="oy04oqgG4kP10lPZJapk-1" source="oy04oqgG4kP10lPZJapk-71" target="oy04oqgG4kP10lPZJapk-54">
          <mxGeometry relative="1" as="geometry">
            <Array as="points">
              <mxPoint x="195" y="730" />
              <mxPoint x="865" y="730" />
              <mxPoint x="865" y="729" />
            </Array>
          </mxGeometry>
        </mxCell>
      </root>
    </mxGraphModel>
  </diagram>
</mxfile>
